<svg width="50" height="50" viewBox="0 0 50 50" fill="none" xmlns="http://www.w3.org/2000/svg">
<rect width="50" height="50" fill="#E21A43" fill-opacity="0.1"/>
<path fill-rule="evenodd" clip-rule="evenodd" d="M14.1182 15L16.3653 15.3991L17.4056 28.1175C17.4888 29.1562 18.3347 29.9532 19.3502 29.9499H31.1355C32.1046 29.9521 32.9267 29.2205 33.0639 28.2361L34.0892 20.9662C34.2037 20.1536 33.6538 19.3998 32.863 19.2823C32.7938 19.2723 16.7261 19.2668 16.7261 19.2668" fill="#E21A43" fill-opacity="0.1"/>
<path fill-rule="evenodd" clip-rule="evenodd" d="M26.4069 23.3639H29.4027H26.4069Z" fill="#E21A43" fill-opacity="0.1"/>
<path fill-rule="evenodd" clip-rule="evenodd" d="M18.8763 33.7928C19.2014 33.7928 19.464 34.0633 19.464 34.3958C19.464 34.7295 19.2014 35 18.8763 35C18.5511 35 18.2886 34.7295 18.2886 34.3958C18.2886 34.0633 18.5511 33.7928 18.8763 33.7928Z" fill="#E21A43" fill-opacity="0.1"/>
<path fill-rule="evenodd" clip-rule="evenodd" d="M31.0627 33.7928C31.3879 33.7928 31.6515 34.0633 31.6515 34.3958C31.6515 34.7295 31.3879 35 31.0627 35C30.7375 35 30.475 34.7295 30.475 34.3958C30.475 34.0633 30.7375 33.7928 31.0627 33.7928Z" fill="#E21A43" fill-opacity="0.1"/>
<path d="M14.1182 15L16.3653 15.3991L17.4056 28.1175C17.4888 29.1562 18.3347 29.9532 19.3502 29.9499H31.1355C32.1046 29.9521 32.9267 29.2205 33.0639 28.2361L34.0892 20.9662C34.2037 20.1536 33.6538 19.3998 32.863 19.2823C32.7938 19.2723 16.7261 19.2668 16.7261 19.2668M26.4069 23.3639H29.4027M18.8763 33.7928C19.2014 33.7928 19.464 34.0633 19.464 34.3958C19.464 34.7295 19.2014 35 18.8763 35C18.5511 35 18.2886 34.7295 18.2886 34.3958C18.2886 34.0633 18.5511 33.7928 18.8763 33.7928ZM31.0627 33.7928C31.3879 33.7928 31.6515 34.0633 31.6515 34.3958C31.6515 34.7295 31.3879 35 31.0627 35C30.7375 35 30.475 34.7295 30.475 34.3958C30.475 34.0633 30.7375 33.7928 31.0627 33.7928Z" stroke="#E21A43" stroke-width="1.5" stroke-linecap="round" stroke-linejoin="round"/>
</svg>
